<svg width="31" height="32" viewBox="0 0 31 32" fill="none" xmlns="http://www.w3.org/2000/svg">
<g clip-path="url(#clip0_1022_158)">
<path d="M24.3813 31.6515H19.7568C19.1186 31.6515 18.6007 31.1339 18.6007 30.4961C18.6007 29.8583 19.1186 29.3407 19.7568 29.3407H24.3813C24.6356 29.3407 24.8946 29.3175 25.1443 29.276C25.7732 29.1697 26.3698 29.5902 26.4808 30.2188C26.5871 30.8474 26.1663 31.4436 25.5374 31.5545C25.1582 31.6192 24.7697 31.6515 24.3813 31.6515ZM15.5948 31.6515H10.9703C10.3322 31.6515 9.81423 31.1339 9.81423 30.4961C9.81423 29.8583 10.3322 29.3407 10.9703 29.3407H15.5948C16.233 29.3407 16.7509 29.8583 16.7509 30.4961C16.7509 31.1339 16.233 31.6515 15.5948 31.6515ZM6.80833 31.6515H6.61873C4.80132 31.6515 3.0949 30.9444 1.81392 29.6549C1.36535 29.202 1.36535 28.4718 1.81392 28.0188C2.26712 27.5705 2.99778 27.5705 3.45098 28.0188C4.29725 28.8692 5.421 29.336 6.61873 29.336H6.80833C7.44651 29.336 7.96445 29.8537 7.96445 30.4915C7.96445 31.1293 7.44651 31.6469 6.80833 31.6469V31.6515ZM28.8254 29.4747C28.5756 29.4747 28.3259 29.3961 28.1178 29.2297C27.6138 28.8369 27.5213 28.1113 27.9144 27.6075C28.5248 26.8172 28.8485 25.8743 28.8485 24.8714V23.9563C28.8485 23.3185 29.3664 22.8009 30.0046 22.8009C30.6428 22.8009 31.1607 23.3185 31.1607 23.9563V24.8714C31.1607 26.392 30.6705 27.8247 29.7364 29.0218C29.5098 29.3129 29.1676 29.4701 28.8207 29.4701L28.8254 29.4747ZM1.00002 26.2718C0.384965 26.2718 -0.12835 25.7865 -0.156096 25.1672C-0.156096 25.0702 -0.160721 24.9731 -0.160721 24.876V20.4992C-0.160721 19.8614 0.357218 19.3438 0.995393 19.3438C1.63357 19.3438 2.15151 19.8614 2.15151 20.4992V24.8807C2.15151 24.9454 2.15151 25.0101 2.15151 25.0748C2.17925 25.7126 1.68444 26.2533 1.04626 26.2764C1.02776 26.2764 1.01389 26.2764 0.995393 26.2764L1.00002 26.2718ZM30.0046 20.9568C29.3664 20.9568 28.8485 20.4392 28.8485 19.8014V15.1796C28.8485 14.5418 29.3664 14.0242 30.0046 14.0242C30.6428 14.0242 31.1607 14.5418 31.1607 15.1796V19.8014C31.1607 20.4392 30.6428 20.9568 30.0046 20.9568ZM0.995393 17.4905C0.357218 17.4905 -0.160721 16.9728 -0.160721 16.335V11.7133C-0.160721 11.0755 0.357218 10.5578 0.995393 10.5578C1.63357 10.5578 2.15151 11.0755 2.15151 11.7133V16.335C2.15151 16.9728 1.63357 17.4905 0.995393 17.4905ZM30.0046 12.1754C29.3664 12.1754 28.8485 11.6578 28.8485 11.02V7.11925C28.8485 6.92513 28.8346 6.73564 28.8115 6.54615C28.7283 5.91297 29.1768 5.33525 29.8104 5.25206C30.4439 5.16887 31.022 5.61718 31.1052 6.25036C31.1422 6.53691 31.1607 6.82808 31.1607 7.11925V11.02C31.1607 11.6578 30.6428 12.1754 30.0046 12.1754ZM0.995393 8.70913C0.357218 8.70913 -0.160721 8.19149 -0.160721 7.55369V7.11925C-0.160721 5.4092 0.477454 3.77772 1.63819 2.52522C2.07289 2.05842 2.80356 2.02607 3.27063 2.46052C3.7377 2.89496 3.77007 3.6252 3.33537 4.092C2.57233 4.91929 2.15151 5.99154 2.15151 7.11925V7.55369C2.15151 8.19149 1.63357 8.70913 0.995393 8.70913ZM28.0161 3.9857C27.7525 3.9857 27.4889 3.89788 27.2715 3.71301C26.4669 3.03361 25.4449 2.65463 24.3859 2.65463H23.7107C23.0725 2.65463 22.5546 2.13699 22.5546 1.49919C22.5546 0.861387 23.0725 0.34375 23.7107 0.34375H24.3859C25.9906 0.34375 27.5444 0.912226 28.7653 1.9475C29.2508 2.35884 29.3109 3.08907 28.8994 3.57436C28.6728 3.84242 28.3444 3.98107 28.0161 3.98107V3.9857ZM6.13779 2.67774C5.54586 2.67774 5.03717 2.22481 4.9863 1.61936C4.9308 0.981553 5.4025 0.42232 6.04067 0.371481C6.23028 0.352993 6.4245 0.348372 6.61873 0.348372H10.7622C11.4004 0.348372 11.9184 0.866009 11.9184 1.50381C11.9184 2.14161 11.4004 2.65925 10.7622 2.65925H6.61873C6.48925 2.65925 6.35976 2.66387 6.2349 2.67312C6.20253 2.67312 6.17016 2.67312 6.13316 2.67312L6.13779 2.67774ZM19.5487 2.65925H14.9243C14.2861 2.65925 13.7681 2.14161 13.7681 1.50381C13.7681 0.866009 14.2861 0.348372 14.9243 0.348372H19.5487C20.1869 0.348372 20.7048 0.866009 20.7048 1.50381C20.7048 2.14161 20.1869 2.65925 19.5487 2.65925Z" fill="#050505"/>
<path d="M15.4977 18.7705C12.5519 18.7705 10.1564 16.3764 10.1564 13.4324C10.1564 10.4883 12.5519 8.09424 15.4977 8.09424C18.4435 8.09424 20.8389 10.4883 20.8389 13.4324C20.8389 16.3764 18.4435 18.7705 15.4977 18.7705ZM15.4977 10.4005C13.8283 10.4005 12.4687 11.7593 12.4687 13.4277C12.4687 15.0962 13.8283 16.455 15.4977 16.455C17.1671 16.455 18.5267 15.0962 18.5267 13.4277C18.5267 11.7593 17.1671 10.4005 15.4977 10.4005Z" fill="#050505"/>
<path d="M24.4414 30.9767C23.8032 30.9767 23.2853 30.459 23.2853 29.8212C23.2853 25.5322 19.7938 22.0428 15.5023 22.0428C11.2108 22.0428 7.71935 25.5322 7.71935 29.8212C7.71935 30.459 7.20141 30.9767 6.56323 30.9767C5.92506 30.9767 5.40712 30.459 5.40712 29.8212C5.40712 24.2566 9.93446 19.7319 15.5023 19.7319C21.0702 19.7319 25.5975 24.2566 25.5975 29.8212C25.5975 30.459 25.0796 30.9767 24.4414 30.9767Z" fill="#050505"/>
</g>
<defs>
<clipPath id="clip0_1022_158">
<rect width="31" height="32" fill="white"/>
</clipPath>
</defs>
</svg>
