<svg width="20" height="17" viewBox="0 0 20 17" fill="none" xmlns="http://www.w3.org/2000/svg">
<path d="M3.00001 2.5C2.71668 2.5 2.47901 2.40433 2.28701 2.213C2.09568 2.021 2.00001 1.78333 2.00001 1.5C2.00001 1.21667 2.09568 0.979 2.28701 0.787C2.47901 0.595667 2.71668 0.5 3.00001 0.5H17C17.2833 0.5 17.5207 0.595667 17.712 0.787C17.904 0.979 18 1.21667 18 1.5C18 1.78333 17.904 2.021 17.712 2.213C17.5207 2.40433 17.2833 2.5 17 2.5H3.00001ZM3.00001 16.5C2.71668 16.5 2.47901 16.404 2.28701 16.212C2.09568 16.0207 2.00001 15.7833 2.00001 15.5V10.5H1.82501C1.50835 10.5 1.25001 10.379 1.05001 10.137C0.850012 9.89567 0.783346 9.61667 0.850012 9.3L1.85001 4.3C1.90001 4.06667 2.01668 3.875 2.20001 3.725C2.38335 3.575 2.59168 3.5 2.82501 3.5H17.175C17.4083 3.5 17.6167 3.575 17.8 3.725C17.9833 3.875 18.1 4.06667 18.15 4.3L19.15 9.3C19.2167 9.61667 19.15 9.89567 18.95 10.137C18.75 10.379 18.4917 10.5 18.175 10.5H18V15.5C18 15.7833 17.904 16.0207 17.712 16.212C17.5207 16.404 17.2833 16.5 17 16.5C16.7167 16.5 16.4793 16.404 16.288 16.212C16.096 16.0207 16 15.7833 16 15.5V10.5H12V15.5C12 15.7833 11.9043 16.0207 11.713 16.212C11.521 16.404 11.2833 16.5 11 16.5H3.00001ZM4.00001 14.5H10V10.5H4.00001V14.5ZM3.05001 8.5H16.95L16.35 5.5H3.65001L3.05001 8.5Z" fill="#C7C6C4"/>
</svg>
