<svg width="24" height="24" viewBox="0 0 24 24" fill="none" xmlns="http://www.w3.org/2000/svg">
<path d="M4.02693 18.3288C4.18385 19.2768 5.0075 19.9998 6 19.9998H18C19.1046 19.9998 20 19.1044 20 17.9998V14.1899M4.02693 18.3288C4.00922 18.2218 4 18.1119 4 17.9998V5.99976C4 4.89519 4.89543 3.99976 6 3.99976H18C19.1046 3.99976 20 4.89519 20 5.99976V14.1899M4.02693 18.3288L7.84762 14.5081C8.52765 13.9131 9.52219 13.848 10.274 14.3492L10.7832 14.6886C11.5078 15.1717 12.4619 15.1303 13.142 14.5863L15.7901 12.4677C16.4651 11.9277 17.4053 11.8854 18.1228 12.3482C18.2023 12.3995 18.2731 12.463 18.34 12.53L20 14.1899M11 8.99976C11 10.1044 10.1046 10.9998 9 10.9998C7.89543 10.9998 7 10.1044 7 8.99976C7 7.89519 7.89543 6.99976 9 6.99976C10.1046 6.99976 11 7.89519 11 8.99976Z" stroke="#050505" stroke-width="1.5" stroke-linecap="round" stroke-linejoin="round"/>
</svg>
