<svg width="21" height="20" viewBox="0 0 21 20" fill="none" xmlns="http://www.w3.org/2000/svg">
<path d="M2 8.5V14.5V2.5V8.5ZM12 17.5C12.2833 17.5 12.521 17.404 12.713 17.212C12.9043 17.0207 13 16.7833 13 16.5C13 16.2167 12.9043 15.9793 12.713 15.788C12.521 15.596 12.2833 15.5 12 15.5C11.7167 15.5 11.4793 15.596 11.288 15.788C11.096 15.9793 11 16.2167 11 16.5C11 16.7833 11.096 17.0207 11.288 17.212C11.4793 17.404 11.7167 17.5 12 17.5ZM18 7.5C18.2833 7.5 18.5207 7.404 18.712 7.212C18.904 7.02067 19 6.78333 19 6.5C19 6.21667 18.904 5.979 18.712 5.787C18.5207 5.59567 18.2833 5.5 18 5.5C17.7167 5.5 17.4793 5.59567 17.288 5.787C17.096 5.979 17 6.21667 17 6.5C17 6.78333 17.096 7.02067 17.288 7.212C17.4793 7.404 17.7167 7.5 18 7.5ZM4 7.5H9V5.5H4V7.5ZM4 11.5H9V9.5H4V11.5ZM2 16.5C1.45 16.5 0.979333 16.3043 0.588 15.913C0.196 15.521 0 15.05 0 14.5V2.5C0 1.95 0.196 1.47933 0.588 1.088C0.979333 0.696 1.45 0.5 2 0.5H18C18.55 0.5 19.021 0.696 19.413 1.088C19.8043 1.47933 20 1.95 20 2.5H2V14.5H7V16.5H2ZM12 19.5C11.1667 19.5 10.4583 19.2083 9.875 18.625C9.29167 18.0417 9 17.3333 9 16.5C9 15.85 9.18733 15.2667 9.562 14.75C9.93733 14.2333 10.4167 13.875 11 13.675V10.5H17V9.325C16.4167 9.125 15.9373 8.76667 15.562 8.25C15.1873 7.73333 15 7.15 15 6.5C15 5.66667 15.2917 4.95833 15.875 4.375C16.4583 3.79167 17.1667 3.5 18 3.5C18.8333 3.5 19.5417 3.79167 20.125 4.375C20.7083 4.95833 21 5.66667 21 6.5C21 7.15 20.8127 7.73333 20.438 8.25C20.0627 8.76667 19.5833 9.125 19 9.325V12.5H13V13.675C13.5833 13.875 14.0627 14.2333 14.438 14.75C14.8127 15.2667 15 15.85 15 16.5C15 17.3333 14.7083 18.0417 14.125 18.625C13.5417 19.2083 12.8333 19.5 12 19.5Z" fill="#C7C6C4"/>
</svg>
